<?xml version="1.0" encoding="UTF-8"?>
<svg width="64px" height="64px" viewBox="0 0 64 64" version="1.1" xmlns="http://www.w3.org/2000/svg" xmlns:xlink="http://www.w3.org/1999/xlink">
    <!-- Generator: Sketch 51.2 (57519) - http://www.bohemiancoding.com/sketch -->
    <title>icon</title>
    <desc>Created with Sketch.</desc>
    <defs></defs>
    <g id="Page-1" stroke="none" stroke-width="1" fill="none" fill-rule="evenodd">
        <g id="icon" fill-rule="nonzero">
            <circle id="Oval" fill="#284A9F" cx="32" cy="32" r="32"></circle>
            <path d="M18.414,50.414 C17.633,51.195 16.367,51.195 15.586,50.414 C14.805,49.633 14.805,48.367 15.586,47.586 L25.485,37.687 C26.266,36.906 27.532,36.906 28.313,37.687 C29.094,38.468 29.094,39.734 28.313,40.515 L18.414,50.414 Z" id="Shape" fill="#231F20" opacity="0.2"></path>
            <path d="M31.142,26.372 C30.361,27.153 29.095,27.153 28.314,26.372 C27.533,25.591 27.533,24.325 28.314,23.544 L38.213,13.645 C38.994,12.864 40.26,12.864 41.041,13.645 C41.822,14.426 41.822,15.692 41.041,16.473 L31.142,26.372 Z" id="Shape" fill="#231F20" opacity="0.2"></path>
            <path d="M42.456,37.686 C41.675,38.467 40.409,38.467 39.628,37.686 C38.847,36.905 38.847,35.639 39.628,34.857 L49.528,24.958 C50.309,24.177 51.575,24.177 52.356,24.958 C53.137,25.739 53.137,27.005 52.356,27.787 L42.456,37.686 Z" id="Shape" fill="#231F20" opacity="0.2"></path>
            <path d="M18.414,48.414 C17.633,49.195 16.367,49.195 15.586,48.414 C14.805,47.633 14.805,46.367 15.586,45.586 L25.485,35.686 C26.266,34.905 27.532,34.905 28.313,35.686 C29.094,36.467 29.094,37.733 28.313,38.514 L18.414,48.414 Z" id="Shape" fill="#FFFFFF"></path>
            <path d="M31.142,24.373 C30.361,25.154 29.095,25.154 28.314,24.373 C27.533,23.592 27.533,22.326 28.314,21.545 L38.213,11.645 C38.994,10.864 40.26,10.864 41.041,11.645 C41.822,12.426 41.822,13.692 41.041,14.473 L31.142,24.373 Z" id="Shape" fill="#91949A"></path>
            <path d="M42.456,35.686 C41.675,36.467 40.409,36.467 39.628,35.686 C38.847,34.905 38.847,33.639 39.628,32.858 L49.528,22.959 C50.309,22.178 51.575,22.178 52.356,22.959 C53.137,23.74 53.137,25.006 52.356,25.787 L42.456,35.686 Z" id="Shape" fill="#91949A"></path>
            <path d="M27.874,19.348 L19.828,27.394 C15.532,31.69 15.532,38.655 19.828,42.95 L22.657,45.778 C26.953,50.074 33.917,50.074 38.213,45.778 L46.259,37.732 L27.874,19.348 Z" id="Shape" fill="#231F20" opacity="0.2"></path>
            <path d="M27.874,17.741 L19.828,25.787 C15.532,30.083 15.532,37.048 19.828,41.343 L22.657,44.171 C26.953,48.467 33.917,48.467 38.213,44.171 L46.259,36.125 L27.874,17.741 Z" id="Shape" fill="#FFFFFF"></path>
            <path d="M48.113,40.415 C47.332,41.196 46.066,41.196 45.285,40.415 L25.485,20.616 C24.704,19.835 24.704,18.569 25.485,17.788 C26.266,17.007 27.532,17.007 28.313,17.788 L48.112,37.587 C48.894,38.367 48.894,39.634 48.113,40.415 Z" id="Shape" fill="#231F20" opacity="0.2"></path>
            <path d="M48.113,38.515 C47.332,39.296 46.066,39.296 45.285,38.515 L25.485,18.716 C24.704,17.935 24.704,16.669 25.485,15.888 C26.266,15.107 27.532,15.107 28.313,15.888 L48.112,35.687 C48.894,36.467 48.894,37.734 48.113,38.515 Z" id="Shape" fill="#91949A"></path>
        </g>
    </g>
</svg>