<?xml version="1.0" encoding="UTF-8"?>
<svg width="38px" height="38px" viewBox="0 0 38 38" version="1.1" xmlns="http://www.w3.org/2000/svg" xmlns:xlink="http://www.w3.org/1999/xlink">
    <!-- Generator: Sketch 51.2 (57519) - http://www.bohemiancoding.com/sketch -->
    <title>Untitled</title>
    <desc>Created with Sketch.</desc>
    <defs></defs>
    <g id="Page-1" stroke="none" stroke-width="1" fill="none" fill-rule="evenodd">
        <g id="icon-mask" fill="#595959" fill-rule="nonzero">
            <path d="M3.414,37.414 C2.633,38.195 1.367,38.195 0.586,37.414 C-0.195,36.633 -0.195,35.367 0.586,34.586 L10.485,24.686 C11.266,23.905 12.532,23.905 13.313,24.686 C14.094,25.467 14.094,26.733 13.313,27.514 L3.414,37.414 Z" id="Shape"></path>
            <path d="M16.142,13.373 C15.361,14.154 14.095,14.154 13.314,13.373 C12.533,12.592 12.533,11.326 13.314,10.545 L23.213,0.645 C23.994,-0.136 25.26,-0.136 26.041,0.645 C26.822,1.426 26.822,2.692 26.041,3.473 L16.142,13.373 Z" id="Shape"></path>
            <path d="M27.456,24.686 C26.675,25.467 25.409,25.467 24.628,24.686 C23.847,23.905 23.847,22.639 24.628,21.858 L34.528,11.959 C35.309,11.178 36.575,11.178 37.356,11.959 C38.137,12.74 38.137,14.006 37.356,14.787 L27.456,24.686 Z" id="Shape"></path>
            <path d="M12.874,6.741 L4.828,14.787 C0.532,19.083 0.532,26.048 4.828,30.343 L7.657,33.171 C11.953,37.467 18.917,37.467 23.213,33.171 L31.259,25.125 L12.874,6.741 Z" id="Shape"></path>
            <path d="M33.113,27.515 C32.332,28.296 31.066,28.296 30.285,27.515 L10.485,7.716 C9.704,6.935 9.704,5.669 10.485,4.888 C11.266,4.107 12.532,4.107 13.313,4.888 L33.112,24.687 C33.894,25.467 33.894,26.734 33.113,27.515 Z" id="Shape"></path>
        </g>
    </g>
</svg>